<?xml version="1.0" encoding="utf-8"?>
<!-- Generator: Adobe Illustrator 16.0.0, SVG Export Plug-In . SVG Version: 6.00 Build 0)  -->
<!DOCTYPE svg PUBLIC "-//W3C//DTD SVG 1.1//EN" "http://www.w3.org/Graphics/SVG/1.1/DTD/svg11.dtd">
<svg version="1.1" id="Capa_1" xmlns="http://www.w3.org/2000/svg" xmlns:xlink="http://www.w3.org/1999/xlink" x="0px" y="0px"
	 width="288px" height="292.244px" viewBox="0 0 288 292.244" enable-background="new 0 0 288 292.244" xml:space="preserve">
<path d="M218.881,34.561V9.32h-11.521v25.24L144,2.88l-63.359,31.68V9.32h-11.52v25.24L0,0V285.8h11.521v-25.236l63.36,31.681
	l63.359-31.681V285.8h11.521v-25.236l63.358,31.681l63.36-31.681V285.8H288V0L218.881,34.561z M276.479,213.117l-57.601,28.801
	v-21.679l57.601-28.799V213.117z M138.239,143.996l-57.601,28.801v-21.678l57.601-28.8V143.996z M149.76,122.319l57.6,28.8v21.678
	l-57.6-28.801V122.319z M149.76,109.44V87.759l57.6,28.8v21.677L149.76,109.44z M138.239,109.44l-57.601,28.8v-21.677l57.601-28.8
	V109.44z M80.639,185.68l57.601-28.801v21.678l-57.601,28.8V185.68z M149.76,156.879l57.6,28.801v21.677l-57.6-28.8V156.879z
	 M207.359,103.681l-57.6-28.8V53.199l57.6,28.8V103.681z M138.239,74.88l-57.601,28.8V82l57.601-28.8V74.88z M69.119,103.681
	l-57.6-28.8V53.199l57.6,28.8V103.681L69.119,103.681z M69.119,116.56v21.677l-57.6-28.8V87.755L69.119,116.56z M69.119,151.119
	v21.678l-57.6-28.801v-21.677L69.119,151.119z M69.119,185.68v21.677l-57.6-28.8v-21.678L69.119,185.68z M11.52,191.439l57.6,28.799
	v21.678l-57.6-28.801V191.439z M80.639,220.239l57.601-28.799v21.677l-57.601,28.801V220.239z M149.76,191.439l57.6,28.799v21.678
	l-57.6-28.801V191.439z M276.479,178.557l-57.601,28.8V185.68l57.601-28.801V178.557z M276.479,143.996l-57.601,28.801v-21.678
	l57.601-28.8V143.996z M276.479,109.44l-57.601,28.8v-21.677l57.601-28.8V109.44z M276.479,74.88l-57.601,28.8V82l57.601-28.8V74.88
	z M276.479,18.64V40.32l-57.601,28.8V47.439L276.479,18.64z M207.359,69.121l-57.6-28.8V18.64l57.6,28.8V69.121z M138.239,18.64
	V40.32l-57.601,28.8V47.439L138.239,18.64z M69.119,47.439v21.681l-57.6-28.8V18.64L69.119,47.439z M11.52,226l57.6,28.801v21.677
	l-57.6-28.8V226z M80.639,276.477v-21.678L138.239,226v21.676L80.639,276.477z M149.76,226l57.6,28.801v21.677l-57.6-28.8V226z
	 M218.881,276.477v-21.678L276.48,226v21.676L218.881,276.477z"/>
</svg>
